<svg width="150" height="38" viewBox="0 0 150 38" fill="none" xmlns="http://www.w3.org/2000/svg">
<g clip-path="url(#clip0_302_2839)">
<rect width="150" height="36.6667" transform="translate(0 0.666626)" fill="url(#paint0_linear_302_2839)"/>
<path d="M14.4659 22.4466V30.0209C14.4659 30.3113 14.3408 30.5897 14.118 30.795C13.8954 31.0003 13.5934 31.1156 13.2784 31.1156C12.9635 31.1156 12.6614 31.0003 12.4387 30.795C12.216 30.5897 12.0909 30.3113 12.0909 30.0209V22.4571C12.4215 22.6797 12.8179 22.8039 13.2272 22.8133C13.6734 22.825 14.1105 22.6956 14.4659 22.4466ZM24.5795 20.2571C24.2781 20.2571 23.989 20.3675 23.776 20.5639C23.5629 20.7603 23.4431 21.0269 23.4431 21.3047V22.6247C23.4431 22.9151 23.5683 23.1935 23.791 23.3988C24.0136 23.6041 24.3156 23.7194 24.6306 23.7194C24.9456 23.7194 25.2477 23.6041 25.4703 23.3988C25.693 23.1935 25.8181 22.9151 25.8181 22.6247V21.3571C25.827 21.2068 25.8006 21.0566 25.7409 20.9166C25.6811 20.7767 25.5894 20.6501 25.4718 20.5458C25.3543 20.4414 25.2137 20.3616 25.0598 20.3118C24.9059 20.262 24.742 20.2433 24.5795 20.2571ZM9.51132 25.3171C9.10242 25.3058 8.70658 25.1817 8.37496 24.9609V32.5561C8.37496 32.8479 8.50066 33.1277 8.72443 33.334C8.94819 33.5402 9.25168 33.6561 9.56814 33.6561C9.88459 33.6561 10.1881 33.5402 10.4118 33.334C10.6356 33.1277 10.7613 32.8479 10.7613 32.5561V25.0133C10.3902 25.2344 9.95241 25.3408 9.51132 25.3171ZM20.875 17.9837C20.721 17.9766 20.5671 17.9985 20.4226 18.048C20.2781 18.0974 20.1461 18.1735 20.0344 18.2714C19.9228 18.3695 19.834 18.4873 19.7734 18.618C19.7128 18.7486 19.6815 18.8893 19.6818 19.0314V24.8666C19.6818 25.1584 19.8075 25.4382 20.0312 25.6444C20.2551 25.8507 20.5585 25.9666 20.875 25.9666C21.1914 25.9666 21.495 25.8507 21.7187 25.6444C21.9425 25.4382 22.0681 25.1584 22.0681 24.8666V19.1047C22.0772 18.9535 22.0506 18.8023 21.9902 18.6615C21.9297 18.5207 21.837 18.3937 21.7181 18.2891C21.5993 18.1846 21.4573 18.1049 21.302 18.0559C21.1467 18.0068 20.9815 17.9893 20.8181 18.0047L20.875 17.9837ZM17.1022 20.2256C16.6742 20.2229 16.2576 20.0986 15.909 19.8694V27.4856C15.909 27.7774 16.0347 28.0572 16.2585 28.2635C16.4823 28.4698 16.7858 28.5856 17.1022 28.5856C17.4187 28.5856 17.7221 28.4698 17.946 28.2635C18.1697 28.0572 18.2954 27.7774 18.2954 27.4856V19.8799C17.935 20.1275 17.4948 20.2565 17.0454 20.2466L17.1022 20.2256ZM6.93177 26.0609V4.78373C6.92879 4.52437 6.81492 4.27659 6.61492 4.09417C6.41492 3.91175 6.14493 3.80944 5.86359 3.80945H5.61359C5.33225 3.80944 5.06226 3.91175 4.86226 4.09417C4.66226 4.27659 4.5484 4.52437 4.54541 4.78373V26.0609C4.54541 26.322 4.65796 26.5725 4.85827 26.7572C5.05859 26.9419 5.3303 27.0456 5.61359 27.0456H5.86359C6.1469 27.0456 6.41859 26.9419 6.61891 26.7572C6.81924 26.5725 6.93177 26.322 6.93177 26.0609ZM9.63632 24.5104H9.38632C9.10302 24.5104 8.83132 24.4067 8.631 24.222C8.43068 24.0373 8.31814 23.7868 8.31814 23.5256V7.31897C8.32114 7.05962 8.43499 6.81182 8.63499 6.62941C8.83499 6.44699 9.10498 6.34468 9.38632 6.34469H9.63632C9.91766 6.34468 10.1876 6.44699 10.3876 6.62941C10.5876 6.81182 10.7015 7.05962 10.7045 7.31897V23.5466C10.7045 23.8078 10.592 24.0582 10.3916 24.2429C10.1913 24.4276 9.91961 24.5314 9.63632 24.5314V24.5104ZM13.3977 22.0171H13.1363C12.8561 22.0171 12.5872 21.9144 12.389 21.7317C12.1909 21.549 12.0795 21.3012 12.0795 21.0428V9.83326C12.078 9.70443 12.1043 9.57661 12.1567 9.45719C12.209 9.33778 12.2867 9.22914 12.385 9.13756C12.4833 9.04597 12.6003 8.97327 12.7293 8.92365C12.8583 8.87404 12.9965 8.84848 13.1363 8.8485H13.3977C13.679 8.85126 13.9478 8.95622 14.1456 9.1406C14.3436 9.32498 14.4545 9.57389 14.4545 9.83326V21.0428C14.4545 21.3012 14.3431 21.549 14.145 21.7317C13.9468 21.9144 13.678 22.0171 13.3977 22.0171ZM17.159 19.4504H16.9204C16.639 19.4504 16.369 19.3482 16.169 19.1657C15.969 18.9833 15.8552 18.7355 15.8522 18.4761V12.4418C15.8429 12.3073 15.8636 12.1725 15.9131 12.0456C15.9626 11.9189 16.0398 11.8027 16.14 11.7045C16.2401 11.6062 16.361 11.5281 16.4953 11.4747C16.6295 11.4213 16.7742 11.3939 16.9204 11.3942H17.1704C17.4537 11.3942 17.7254 11.4979 17.9258 11.6826C18.1261 11.8673 18.2386 12.1178 18.2386 12.379V18.4552C18.2401 18.5854 18.2136 18.7146 18.1605 18.8352C18.1076 18.9559 18.0292 19.0657 17.9297 19.1583C17.8304 19.2508 17.7122 19.3243 17.5818 19.3744C17.4514 19.4246 17.3117 19.4504 17.1704 19.4504H17.159ZM20.9318 17.198H20.6818C20.3985 17.198 20.1268 17.0943 19.9264 16.9096C19.7261 16.7249 19.6136 16.4744 19.6136 16.2133V14.6523C19.6165 14.3929 19.7304 14.1452 19.9304 13.9628C20.1304 13.7803 20.4004 13.678 20.6818 13.678H20.9318C21.2131 13.678 21.4831 13.7803 21.6831 13.9628C21.8831 14.1452 21.997 14.3929 22 14.6523V16.2133C22 16.4726 21.889 16.7216 21.6911 16.9059C21.4932 17.0903 21.2245 17.1953 20.9431 17.198H20.9318Z" fill="url(#paint1_linear_302_2839)"/>
<path d="M34.8346 25.3238V11.3238H36.9746L43.0946 21.5438H41.9746L47.9946 11.3238H50.1346L50.1546 25.3238H47.6946L47.6746 15.1838H48.1946L43.0746 23.7238H41.9146L36.7146 15.1838H37.3146V25.3238H34.8346ZM59.8162 25.4638C58.9095 25.4638 58.1095 25.2971 57.4162 24.9638C56.7228 24.6171 56.1828 24.0971 55.7962 23.4038C55.4095 22.6971 55.2162 21.8105 55.2162 20.7438V14.6438H57.7162V20.4038C57.7162 21.3638 57.9295 22.0838 58.3562 22.5638C58.7962 23.0305 59.4162 23.2638 60.2162 23.2638C60.8028 23.2638 61.3095 23.1438 61.7362 22.9038C62.1762 22.6638 62.5162 22.3038 62.7562 21.8238C63.0095 21.3438 63.1362 20.7505 63.1362 20.0438V14.6438H65.6362V25.3238H63.2562V22.4438L63.6762 23.3238C63.3162 24.0171 62.7895 24.5505 62.0962 24.9238C61.4028 25.2838 60.6428 25.4638 59.8162 25.4638ZM73.8094 25.4638C72.9161 25.4638 72.0561 25.3505 71.2294 25.1238C70.4161 24.8838 69.7694 24.5971 69.2894 24.2638L70.2494 22.3638C70.7294 22.6705 71.3028 22.9238 71.9694 23.1238C72.6361 23.3238 73.3028 23.4238 73.9694 23.4238C74.7561 23.4238 75.3228 23.3171 75.6694 23.1038C76.0294 22.8905 76.2094 22.6038 76.2094 22.2438C76.2094 21.9505 76.0894 21.7305 75.8494 21.5838C75.6094 21.4238 75.2961 21.3038 74.9094 21.2238C74.5228 21.1438 74.0894 21.0705 73.6094 21.0038C73.1428 20.9371 72.6694 20.8505 72.1894 20.7438C71.7228 20.6238 71.2961 20.4571 70.9094 20.2438C70.5228 20.0171 70.2094 19.7171 69.9694 19.3438C69.7294 18.9705 69.6094 18.4771 69.6094 17.8638C69.6094 17.1838 69.8028 16.5971 70.1894 16.1038C70.5761 15.5971 71.1161 15.2105 71.8094 14.9438C72.5161 14.6638 73.3494 14.5238 74.3094 14.5238C75.0294 14.5238 75.7561 14.6038 76.4894 14.7638C77.2228 14.9238 77.8294 15.1505 78.3094 15.4438L77.3494 17.3438C76.8428 17.0371 76.3294 16.8305 75.8094 16.7238C75.3028 16.6038 74.7961 16.5438 74.2894 16.5438C73.5294 16.5438 72.9628 16.6571 72.5894 16.8838C72.2294 17.1105 72.0494 17.3971 72.0494 17.7438C72.0494 18.0638 72.1694 18.3038 72.4094 18.4638C72.6494 18.6238 72.9628 18.7505 73.3494 18.8438C73.7361 18.9371 74.1628 19.0171 74.6294 19.0838C75.1094 19.1371 75.5828 19.2238 76.0494 19.3438C76.5161 19.4638 76.9428 19.6305 77.3294 19.8438C77.7294 20.0438 78.0494 20.3305 78.2894 20.7038C78.5294 21.0771 78.6494 21.5638 78.6494 22.1638C78.6494 22.8305 78.4494 23.4105 78.0494 23.9038C77.6628 24.3971 77.1094 24.7838 76.3894 25.0638C75.6694 25.3305 74.8094 25.4638 73.8094 25.4638ZM82.4024 25.3238V14.6438H84.9024V25.3238H82.4024ZM83.6624 12.8838C83.1957 12.8838 82.8091 12.7371 82.5024 12.4438C82.2091 12.1505 82.0624 11.7971 82.0624 11.3838C82.0624 10.9571 82.2091 10.6038 82.5024 10.3238C82.8091 10.0305 83.1957 9.88379 83.6624 9.88379C84.1291 9.88379 84.5091 10.0238 84.8024 10.3038C85.1091 10.5705 85.2624 10.9105 85.2624 11.3238C85.2624 11.7638 85.1157 12.1371 84.8224 12.4438C84.5291 12.7371 84.1424 12.8838 83.6624 12.8838ZM92.8237 25.3238L88.1637 14.8238H89.6437L93.9237 24.5638H93.2237L97.5637 14.8238H98.9637L94.2837 25.3238H92.8237ZM106.731 25.4238C105.637 25.4238 104.677 25.1971 103.851 24.7438C103.024 24.2771 102.377 23.6438 101.911 22.8438C101.444 22.0305 101.211 21.1038 101.211 20.0638C101.211 19.0238 101.431 18.1038 101.871 17.3038C102.324 16.5038 102.937 15.8771 103.711 15.4238C104.497 14.9571 105.377 14.7238 106.351 14.7238C107.337 14.7238 108.211 14.9505 108.971 15.4038C109.744 15.8438 110.351 16.4705 110.791 17.2838C111.231 18.0838 111.451 19.0105 111.451 20.0638C111.451 20.1305 111.444 20.2038 111.431 20.2838C111.431 20.3505 111.431 20.4238 111.431 20.5038H102.291V19.4438H110.671L110.111 19.8638C110.111 19.1038 109.944 18.4305 109.611 17.8438C109.291 17.2438 108.851 16.7771 108.291 16.4438C107.731 16.1105 107.084 15.9438 106.351 15.9438C105.631 15.9438 104.984 16.1105 104.411 16.4438C103.837 16.7771 103.391 17.2438 103.071 17.8438C102.751 18.4438 102.591 19.1305 102.591 19.9038V20.1238C102.591 20.9238 102.764 21.6305 103.111 22.2438C103.471 22.8438 103.964 23.3171 104.591 23.6638C105.231 23.9971 105.957 24.1638 106.771 24.1638C107.411 24.1638 108.004 24.0505 108.551 23.8238C109.111 23.5971 109.591 23.2505 109.991 22.7838L110.791 23.7038C110.324 24.2638 109.737 24.6905 109.031 24.9838C108.337 25.2771 107.571 25.4238 106.731 25.4238ZM115.941 25.3238V14.8238H117.301V17.6838L117.161 17.1838C117.454 16.3838 117.948 15.7771 118.641 15.3638C119.334 14.9371 120.194 14.7238 121.221 14.7238V16.1038C121.168 16.1038 121.114 16.1038 121.061 16.1038C121.008 16.0905 120.954 16.0838 120.901 16.0838C119.794 16.0838 118.928 16.4238 118.301 17.1038C117.674 17.7705 117.361 18.7238 117.361 19.9638V25.3238H115.941ZM128.349 25.4238C127.482 25.4238 126.662 25.3038 125.889 25.0638C125.116 24.8105 124.509 24.4971 124.069 24.1238L124.709 23.0038C125.136 23.3238 125.682 23.6038 126.349 23.8438C127.016 24.0705 127.716 24.1838 128.449 24.1838C129.449 24.1838 130.169 24.0305 130.609 23.7238C131.049 23.4038 131.269 22.9838 131.269 22.4638C131.269 22.0771 131.142 21.7771 130.889 21.5638C130.649 21.3371 130.329 21.1705 129.929 21.0638C129.529 20.9438 129.082 20.8438 128.589 20.7638C128.096 20.6838 127.602 20.5905 127.109 20.4838C126.629 20.3771 126.189 20.2238 125.789 20.0238C125.389 19.8105 125.062 19.5238 124.809 19.1638C124.569 18.8038 124.449 18.3238 124.449 17.7238C124.449 17.1505 124.609 16.6371 124.929 16.1838C125.249 15.7305 125.716 15.3771 126.329 15.1238C126.956 14.8571 127.716 14.7238 128.609 14.7238C129.289 14.7238 129.969 14.8171 130.649 15.0038C131.329 15.1771 131.889 15.4105 132.329 15.7038L131.709 16.8438C131.242 16.5238 130.742 16.2971 130.209 16.1638C129.676 16.0171 129.142 15.9438 128.609 15.9438C127.662 15.9438 126.962 16.1105 126.509 16.4438C126.069 16.7638 125.849 17.1771 125.849 17.6838C125.849 18.0838 125.969 18.3971 126.209 18.6238C126.462 18.8505 126.789 19.0305 127.189 19.1638C127.602 19.2838 128.049 19.3838 128.529 19.4638C129.022 19.5438 129.509 19.6438 129.989 19.7638C130.482 19.8705 130.929 20.0238 131.329 20.2238C131.742 20.4105 132.069 20.6838 132.309 21.0438C132.562 21.3905 132.689 21.8505 132.689 22.4238C132.689 23.0371 132.516 23.5705 132.169 24.0238C131.836 24.4638 131.342 24.8105 130.689 25.0638C130.049 25.3038 129.269 25.4238 128.349 25.4238ZM141.355 25.4238C140.261 25.4238 139.301 25.1971 138.475 24.7438C137.648 24.2771 137.001 23.6438 136.535 22.8438C136.068 22.0305 135.835 21.1038 135.835 20.0638C135.835 19.0238 136.055 18.1038 136.495 17.3038C136.948 16.5038 137.561 15.8771 138.335 15.4238C139.121 14.9571 140.001 14.7238 140.975 14.7238C141.961 14.7238 142.835 14.9505 143.595 15.4038C144.368 15.8438 144.975 16.4705 145.415 17.2838C145.855 18.0838 146.075 19.0105 146.075 20.0638C146.075 20.1305 146.068 20.2038 146.055 20.2838C146.055 20.3505 146.055 20.4238 146.055 20.5038H136.915V19.4438H145.295L144.735 19.8638C144.735 19.1038 144.568 18.4305 144.235 17.8438C143.915 17.2438 143.475 16.7771 142.915 16.4438C142.355 16.1105 141.708 15.9438 140.975 15.9438C140.255 15.9438 139.608 16.1105 139.035 16.4438C138.461 16.7771 138.015 17.2438 137.695 17.8438C137.375 18.4438 137.215 19.1305 137.215 19.9038V20.1238C137.215 20.9238 137.388 21.6305 137.735 22.2438C138.095 22.8438 138.588 23.3171 139.215 23.6638C139.855 23.9971 140.581 24.1638 141.395 24.1638C142.035 24.1638 142.628 24.0505 143.175 23.8238C143.735 23.5971 144.215 23.2505 144.615 22.7838L145.415 23.7038C144.948 24.2638 144.361 24.6905 143.655 24.9838C142.961 25.2771 142.195 25.4238 141.355 25.4238Z" fill="url(#paint2_linear_302_2839)"/>
</g>
<defs>
<linearGradient id="paint0_linear_302_2839" x1="75" y1="-7.77147e-06" x2="0.815102" y2="20.7269" gradientUnits="userSpaceOnUse">
<stop stop-color="white"/>
<stop offset="1" stop-color="white" stop-opacity="0"/>
</linearGradient>
<linearGradient id="paint1_linear_302_2839" x1="4.54541" y1="21.619" x2="18.75" y2="21.619" gradientUnits="userSpaceOnUse">
<stop stop-color="#39CABD"/>
<stop offset="1" stop-color="#4AB5CA"/>
</linearGradient>
<linearGradient id="paint2_linear_302_2839" x1="37.0159" y1="22.1219" x2="154.793" y2="22.1219" gradientUnits="userSpaceOnUse">
<stop stop-color="#46BBC7"/>
<stop offset="0.5625" stop-color="#4488D8"/>
<stop offset="1" stop-color="#8768F2"/>
</linearGradient>
<clipPath id="clip0_302_2839">
<rect width="150" height="36.6667" fill="white" transform="translate(0 0.666626)"/>
</clipPath>
</defs>
</svg>
